<svg id="regular" enable-background="new 0 0 24 24" height="512" viewBox="0 0 24 24" width="512" xmlns="http://www.w3.org/2000/svg"><g><g><path d="m23.25 16.75h-22.5v-11c0-.552.448-1 1-1h20.5c.552 0 1 .448 1 1z" fill="#fafafa"/></g><g><circle cx="12" cy="9" fill="#fafafa" r="4.25"/></g><g><circle cx="12" cy="9" fill="#f44336" r="1.75"/></g><g><path d="m17.75 5.583h-1.795c-.297 0-.538-.241-.538-.538v-1.795c0-.143.057-.28.158-.381l1.795-1.795c.154-.154.386-.2.587-.117s.332.28.332.497v1.256h1.256c.218 0 .414.131.497.332s.037.433-.117.587l-1.795 1.795c-.1.103-.237.159-.38.159z" fill="#2196f3"/></g><g><path d="m14.981 22.84c-1.016-1.016-1.046-2-1.047-2.049-.002-.213-.174-.384-.387-.384h-3.109c-.213 0-.386.176-.387.389 0 .042-.014 1.027-1.031 2.045-.111.111-.144.277-.084.421.06.145.201.239.357.239h5.414c.156 0 .298-.094.357-.239.06-.145.027-.311-.083-.422z" fill="#90a4ae"/></g><g><path d="m23.25 16.75h-22.5v2.5c0 .552.448 1 1 1h20.5c.552 0 1-.448 1-1z" fill="#607d8b"/></g><g><path d="m12 14c-2.757 0-5-2.243-5-5s2.243-5 5-5c.414 0 .75.336.75.75s-.336.75-.75.75c-1.93 0-3.5 1.57-3.5 3.5s1.57 3.5 3.5 3.5 3.5-1.57 3.5-3.5c0-.414.336-.75.75-.75s.75.336.75.75c0 2.757-2.243 5-5 5z"/></g><g><path d="m12 9.75c-.192 0-.384-.073-.53-.22-.293-.293-.293-.768 0-1.061l3-3c.293-.293.768-.293 1.061 0s.293.768 0 1.061l-3 3c-.147.147-.339.22-.531.22z"/></g><g><path d="m17.75 6.5h-2.5c-.414 0-.75-.336-.75-.75v-2.5c0-.199.079-.39.22-.53l2.5-2.5c.215-.215.538-.28.817-.163.28.116.463.39.463.693v1.75h1.75c.303 0 .577.183.693.463s.052.603-.163.817l-2.5 2.5c-.14.141-.331.22-.53.22zm-1.75-1.5h1.439l1-1h-.689c-.414 0-.75-.336-.75-.75v-.689l-1 1z"/></g><g><path d="m22.25 21h-20.5c-.965 0-1.75-.785-1.75-1.75v-13.5c0-.965.785-1.75 1.75-1.75h3.5c.414 0 .75.336.75.75s-.336.75-.75.75h-3.5c-.138 0-.25.112-.25.25v13.5c0 .138.112.25.25.25h20.5c.138 0 .25-.112.25-.25v-13.5c0-.138-.112-.25-.25-.25-.414 0-.75-.336-.75-.75s.336-.75.75-.75c.965 0 1.75.785 1.75 1.75v13.5c0 .965-.785 1.75-1.75 1.75z"/></g><g><path d="m23.25 17.5h-22.5c-.414 0-.75-.336-.75-.75s.336-.75.75-.75h22.5c.414 0 .75.336.75.75s-.336.75-.75.75z"/></g><g><path d="m15.25 24h-6.5c-.303 0-.577-.183-.693-.463s-.052-.603.163-.817c1.041-1.041 1.265-2.552 1.267-2.567.055-.411.43-.702.841-.646.411.054.7.431.646.841-.008.059-.147 1.066-.744 2.152h3.523c-.591-1.081-.738-2.088-.746-2.147-.057-.41.229-.789.64-.846.412-.055.789.229.846.638.007.045.232 1.469 1.184 2.488.195.136.323.361.323.617 0 .414-.336.75-.75.75z"/></g></g></svg>